<svg width="24" height="24" viewBox="0 0 24 24" fill="none" xmlns="http://www.w3.org/2000/svg">
<path fill-rule="evenodd" clip-rule="evenodd" d="M12.2933 3C16.1591 3.00019 19.2933 6.13413 19.2933 10V14.3818L20.3988 14.9346C20.814 15.1422 21.1501 15.4793 21.3578 15.8945C22.0712 17.3213 21.034 19 19.4388 19H16.1673C15.7233 20.7252 14.1571 22 12.2933 22C10.4295 22 8.86331 20.7252 8.41927 19H5.14681C3.55173 18.9998 2.51451 17.3213 3.22787 15.8945C3.43551 15.4792 3.77254 15.1422 4.18783 14.9346L5.2933 14.3818V10C5.2933 6.13401 8.42731 3 12.2933 3ZM10.5609 19C10.9067 19.5978 11.553 20 12.2933 20C13.0336 20 13.6799 19.5978 14.0257 19H10.5609ZM12.2933 5C9.53187 5 7.2933 7.23858 7.2933 10V15.6182L5.08138 16.7236C5.05331 16.7378 5.03099 16.7609 5.01693 16.7891C4.96847 16.886 5.03849 16.9998 5.14681 17H19.4388C19.5472 17 19.6179 16.886 19.5697 16.7891C19.5556 16.7609 19.5324 16.7378 19.5042 16.7236L17.2933 15.6182V10C17.2933 7.2387 15.0546 5.00019 12.2933 5Z" fill="black"/>
</svg>
